<svg id="Layer_1" data-name="Layer 1" xmlns="http://www.w3.org/2000/svg" viewBox="0 0 360 360"><path d="M114.51,306.7c-7.46-1.41-14.6-2.07-21.29-4.16C72.29,296,60.31,279.45,60.27,257.69c-.07-36.57-.74-73.16.32-109.7.45-15.77,3.63-31.66,7.33-47.08,2.92-12.14,9.85-22.15,22.77-27.24,4.34-1.71,9.57-5.62,5.58-13-1.11-2,.78-7.28,3-9.22,8.27-7.38,31.17-7.26,39.27.09,2,1.86,4,6.54,3.08,8.46-4,8,.87,11.71,6.59,14,10.51,4.16,17,12.06,19.17,22.14a380.91,380.91,0,0,1,7.28,48.95c1.17,14,.24,28.15.24,44.81,9.52-8.24,18.13-14.53,25.28-22.19,10.07-10.79,22.37-15.12,36.45-14.5,14.4.64,29,1.33,43,4.14,8.08,1.61,16,6.56,22.77,11.63,10.6,7.94,17.29,17.78,16.3,32.77-1.45,21.72-.6,43.61-.26,65.42.12,7.56-2.1,11.56-10,13.79C248.55,298,188.8,315.44,129,332.7c-10.72,3.1-13.49,1-13.66-10-.06-4.61-.07-9.22-.16-13.83A9.91,9.91,0,0,0,114.51,306.7Zm.76-17.15c0-13.57-.4-27.34.25-41.05a18.39,18.39,0,0,1,5.39-11.43c11-10.32,22.83-19.76,33.93-30,2.59-2.38,4.91-6.51,5-9.88.42-19.35.9-38.77-.2-58.07-.74-13-3.32-26.14-6.41-38.89C150,87,135.6,84.57,126.3,78c-5.43-3.86-18.32-4.54-23.67,6.89-.64,1.37-2.88,2.58-4.52,2.8-9.19,1.26-13.48,8-15.26,15.47-3.34,14-7,28.21-7.39,42.43-1,37.77-.5,75.6-.32,113.4C75.24,279.06,93.82,293.4,115.27,289.55Zm188.12-87.64c-1.34-.25-1.67-.43-1.94-.35Q218,225.44,134.56,249.51c-1.78.52-4.13,3.2-4.16,4.9-.28,20.49-.18,41-.18,62.44,6.47-1.82,11.78-3.26,17.07-4.79q74.15-21.39,148.22-43c3-.86,7.48-3.82,7.54-5.91C303.61,242.71,303.39,222.2,303.39,201.91Zm-5.5-15.22c.25-1,.49-2.05.74-3.08-7.12-4-13.83-9.88-21.45-11.47-13.41-2.8-27.34-3.31-41.1-4.1-9.53-.54-17.57,3-24.91,9.69-17.86,16.39-36.44,32-54.73,47.93l.91,1.7Z"/><path d="M131.46,161.68c0-9.82-.61-19.69.33-29.41.34-3.55,4-9.14,6.84-9.62,6.31-1.06,7.65,4.53,7.65,9.89q0,29.9,0,59.79c0,5.35-1.08,10.51-7.58,10.39s-7.28-5.42-7.27-10.69C131.48,181.91,131.45,171.79,131.46,161.68Z"/></svg>