<svg xmlns="http://www.w3.org/2000/svg" viewBox="0 0 1080 1080"><defs><style>.cls-1{fill:#fff4e6;}</style></defs><g id="Layer_4" data-name="Layer 4"><path class="cls-1" d="M470.69,253.78h-136v230h113v105h-113v329h-133v-770h269Z"/><path class="cls-1" d="M886.68,751.78c0,123-64,176-161,176-103,0-144-63-144-174a772.23,772.23,0,0,1,8-108l100,12c-4,29-7,59-7,85,0,65,11,82,35,82,22,0,34-17,34-64v-21c0-57-16-109-81-188-65-78-91-141-91-229v-12c0-100,39-176,153-176,109,0,143,69,143,174,0,38-3,65-7,95l-101-12c3-26,5-32,5-72,0-67-10-83-31-83-22,0-29,15-29,60v16c0,44,17,89,64,149,66,85,110,177,110,275Z"/></g></svg>