<svg id="Layer_1" data-name="Layer 1" xmlns="http://www.w3.org/2000/svg" viewBox="0 0 580 575"><defs><style>.cls-1{fill:#e4dcd1;}</style></defs><path class="cls-1" d="M23.24,141.6c4.66,0,10.89,6.32,10.89,9.64,0,1-.54,1.68-1.81,1.9a54.79,54.79,0,0,1-9,.8c-7.78,0-13.65-2.08-17.87-5.71s-5.78-7.5-5.78-11.49c0-9,8.33-18.43,14.55-25C34.78,89.88,72.71,65,96.7,65a30.27,30.27,0,0,1,22.51,9.89c8.2,8.68,11.55,19.61,11.55,31.9,0,32.51-23.48,74.46-42.89,109.14-2.84,5.05-5.57,10-8.14,14.65C110.91,183.05,195.79,57.14,246.5,14.37,255.12,7.1,266.34.29,276.31.29,283.8.29,290.58,4.13,295,14.5c3.12,7.29,4.49,16.36,4.49,26.76,0,42.41-22.79,106.93-42.56,162.86-9.89,28-28.19,75-28.19,96.3,0,4.06,1.78,8.87,1.78,11.54,0,1.15-.34,1.9-1.28,2a7.89,7.89,0,0,1-1.18.08c-8.63,0-12.7-13.05-12.7-20.93,0-22.42,18.25-69.08,28.47-98C263.59,139.25,286.4,74.68,286.4,34.25c0-9.24-1.19-17.21-3.88-23.54-.21,0-.43,0-.65,0-15.79,0-60,51.69-69.23,62.87C147.38,152.29,68.27,276.72,68,278.09a22.27,22.27,0,0,1-3.29.22c-5.36,0-15.37-1.64-15.37-13.92a31.22,31.22,0,0,1,.8-6.65c2.61-11.72,13-30.2,24.83-51.44,6-10.76,44.79-79.4,44.79-112.25,0-9.83-3.46-16.45-12.31-17.38-1-.1-2.09-.16-3.17-.16-36,0-93.44,59.09-93.44,66.21a.7.7,0,0,0,.2.54c.2.16,3.64-.29,11.41-1.6A4.9,4.9,0,0,1,23.24,141.6Z"/><path class="cls-1" d="M321.41,154.39c4.12,0,10.94,6.06,10.94,9.52a2,2,0,0,1-.82,1.65c-5.49,3.91-31.06,26.62-31.06,38.53a5.92,5.92,0,0,0,3,5.36,9.92,9.92,0,0,0,5.29,1.41c6.23,0,14-4.63,21-11.34,8.59-8.17,16.24-20.57,17.57-32.29-16.45-4.42-28.15-16.64-28.15-23.81a4.68,4.68,0,0,1,2.6-4.39,10.94,10.94,0,0,1,5.22-1.18c10.82,0,26.8,11.31,31,20,12.64-.76,28.7-6,47.45-19.86a2.74,2.74,0,0,1,1.64-.47c4,0,11,5.59,11,9.41a2.55,2.55,0,0,1-.38,1.37c-1.27,2.49-11.75,23.28-20.19,41.87,10.8-11.84,53.78-62.52,67.69-62.52a4.38,4.38,0,0,1,1.43.22c9,3,11.84,9.83,11.84,17.59,0,8.17-3.09,17.37-5.28,24.3,4.7-3.54,10.64-7.4,16.18-7.4.34,0,.68,0,1,0,22.8,2,16.1,36.12,18.64,36.6a10.07,10.07,0,0,0,1.86.16c14.66,0,45.28-26.63,56.62-35a2.88,2.88,0,0,1,1.75-.52c4.12,0,11,6.09,11,9.57a2,2,0,0,1-.81,1.64c-13.26,9.73-43.37,35.73-61.11,35.73a15.5,15.5,0,0,1-2.85-.25c-24.17-4.53-19.79-20.16-21.17-35.56-12.36,5-32.81,27.78-34.24,29.74a2.53,2.53,0,0,1-2.19,1c-4,0-10.94-5.75-10.94-9.46a2.43,2.43,0,0,1,.2-1c0-.1,14.63-33.62,17.53-52.69-21.81,13.15-71.4,78.81-78.45,80.57A21.38,21.38,0,0,1,373.55,214c-1.37-5.5,10.11-31.43,19.57-51.36a78.18,78.18,0,0,1-30.37,6.57c-.67,0-1.32,0-2,0,1.26,22-21.07,52.44-44.47,52.44a26.32,26.32,0,0,1-6.32-.76c-10.71-2.66-22.22-13.13-22.22-24.89a18,18,0,0,1,.4-3.77C292,174.5,319.6,155,319.67,154.9A2.93,2.93,0,0,1,321.41,154.39Zm13.76-4.69a3.15,3.15,0,0,0-2.35.68.94.94,0,0,0-.24.62c0,2.64,11.82,5.86,13.79,6.2C344.27,151.81,338.53,149.7,335.17,149.7Z"/><path class="cls-1" d="M23.24,402.3c4.66,0,10.89,6.33,10.89,9.64,0,1-.54,1.69-1.81,1.91a54.79,54.79,0,0,1-9,.8c-7.78,0-13.65-2.08-17.87-5.72s-5.78-7.49-5.78-11.48c0-9,8.33-18.43,14.55-25,20.54-21.82,58.47-46.74,82.46-46.74a30.29,30.29,0,0,1,22.51,9.88c8.2,8.69,11.55,19.62,11.55,31.91,0,32.5-23.48,74.46-42.89,109.14-2.84,5-5.57,10-8.14,14.64,31.18-47.48,116.06-173.39,166.77-216.16,8.62-7.27,19.84-14.08,29.81-14.08,7.49,0,14.27,3.84,18.71,14.21,3.12,7.29,4.49,16.36,4.49,26.76,0,42.4-22.79,106.93-42.56,162.86-9.89,28-28.19,75-28.19,96.3,0,4,1.78,8.87,1.78,11.54,0,1.15-.34,1.9-1.28,2a9.48,9.48,0,0,1-1.18.08c-8.63,0-12.7-13.06-12.7-20.94,0-22.42,18.25-69.07,28.47-98C263.59,400,286.4,335.38,286.4,295c0-9.24-1.19-17.22-3.88-23.54-.21,0-.43,0-.65,0-15.79,0-60,51.69-69.23,62.87C147.38,413,68.27,537.43,68,538.8a22.27,22.27,0,0,1-3.29.22c-5.36,0-15.37-1.64-15.37-13.92a31.15,31.15,0,0,1,.8-6.65c2.61-11.72,13-30.2,24.83-51.45,6-10.75,44.79-79.39,44.79-112.24,0-9.83-3.46-16.45-12.31-17.38a29.9,29.9,0,0,0-3.17-.16c-36,0-93.44,59.09-93.44,66.2a.71.71,0,0,0,.2.55c.2.15,3.64-.29,11.41-1.6A3.94,3.94,0,0,1,23.24,402.3Z"/><path class="cls-1" d="M321.41,415.1c4.12,0,10.94,6,10.94,9.52a1.92,1.92,0,0,1-.82,1.64c-5.49,3.92-31.06,26.63-31.06,38.54a5.92,5.92,0,0,0,3,5.36,9.92,9.92,0,0,0,5.29,1.41c6.23,0,14-4.64,21-11.35,8.59-8.16,16.24-20.56,17.57-32.29-16.45-4.41-28.15-16.63-28.15-23.8a4.67,4.67,0,0,1,2.6-4.39,10.94,10.94,0,0,1,5.22-1.18c10.82,0,26.8,11.31,31,20,12.64-.76,28.7-6,47.45-19.86a2.74,2.74,0,0,1,1.64-.47c4,0,11,5.59,11,9.4a2.56,2.56,0,0,1-.38,1.38c-1.27,2.49-11.75,23.28-20.19,41.87,10.8-11.85,53.78-62.52,67.69-62.52a4.66,4.66,0,0,1,1.43.21c9,3,11.84,9.84,11.84,17.6,0,8.16-3.09,17.37-5.28,24.3,4.7-3.54,10.64-7.4,16.18-7.4.34,0,.68,0,1,0,22.8,2,16.1,36.12,18.64,36.6a10.07,10.07,0,0,0,1.86.16c14.66,0,45.28-26.63,56.62-35a2.88,2.88,0,0,1,1.75-.52c4.12,0,11,6.09,11,9.57a1.93,1.93,0,0,1-.81,1.63c-13.26,9.74-43.37,35.74-61.11,35.74a15.5,15.5,0,0,1-2.85-.25c-24.17-4.54-19.79-20.16-21.17-35.56-12.36,5-32.81,27.78-34.24,29.74a2.53,2.53,0,0,1-2.19,1c-4,0-10.94-5.75-10.94-9.46a2.43,2.43,0,0,1,.2-1c0-.1,14.63-33.62,17.53-52.69-21.81,13.15-71.4,78.81-78.45,80.57a21.38,21.38,0,0,1-12.65-8.93c-1.37-5.5,10.11-31.43,19.57-51.36a78.18,78.18,0,0,1-30.37,6.57c-.67,0-1.32,0-2,0,1.26,22-21.07,52.44-44.47,52.44a25.84,25.84,0,0,1-6.32-.77c-10.71-2.65-22.22-13.13-22.22-24.88a18.13,18.13,0,0,1,.4-3.78c3.84-17.68,31.43-37.23,31.5-37.28A2.86,2.86,0,0,1,321.41,415.1Zm13.76-4.69a3.2,3.2,0,0,0-2.35.67,1,1,0,0,0-.24.63c0,2.64,11.82,5.85,13.79,6.2C344.27,412.52,338.53,410.41,335.17,410.41Z"/></svg>