<svg id="Layer_1" data-name="Layer 1" xmlns="http://www.w3.org/2000/svg" viewBox="0 0 360 360"><defs><style>.cls-1{fill:#0f0f0f;stroke:#0f0f0f;stroke-miterlimit:10;stroke-width:4px;}</style></defs><path class="cls-1" d="M294.66,251.47c3.42,1.86,4.4,3.53,4,7-.26,2.41-2.14,3.7-3.87,4.91a35.68,35.68,0,0,1-18,6.39,160,160,0,0,1-16.67.53A88.35,88.35,0,0,1,241,267.13a112.14,112.14,0,0,1-23.56-9,125.84,125.84,0,0,0-12.2-5.8c-2.7-1-5.75-1.16-8.65-1.66a2.71,2.71,0,0,0-.89.22c1.89,5,3.76,9.91,5.6,14.82,2.45,6.5,5.33,12.89,7.21,19.55,2.82,10,.68,19.2-6.18,27.13s-15.59,11.28-25.8,10.09-18-6.31-22.63-15.43c-4.77-9.47-8.86-19.27-13.2-28.95-1.38-3.08-2.61-6.24-4-9.67-1.88.7-3.76,1.38-5.63,2.09L93.29,284.85c-6.07,2.3-12.05,4.9-18.23,6.84a29.16,29.16,0,0,1-31.32-9.81,28.39,28.39,0,0,1-6.33-22.6c1.56-10.6,7.32-18.58,17.19-23.07,12.18-5.55,24.45-10.88,36.74-16.15,7.48-3.2,15.07-6.11,22.69-9.19a2.86,2.86,0,0,0,0-1.05c-2-4.93-3.78-9.94-6-14.77A38.48,38.48,0,0,0,92,177.83c-4.57-2.69-9.52-4.73-14.18-7.27A85.34,85.34,0,0,1,47.1,142.28a62.63,62.63,0,0,1-7.86-15.92,75.79,75.79,0,0,1-2-10.65c-.71-4.52,3.06-8.13,8.52-6.89,1.2.28,2.4.59,3.76.92C47.6,90.7,52.94,74,65.29,59.61c8-9.35,18-16.16,29.89-19.43,29.87-8.24,53.85,1.33,72.91,25.08a4.41,4.41,0,0,0,.56-.85c1.82-4.14,7.42-4.3,10.14-1a34.18,34.18,0,0,1,6.15,12,66.93,66.93,0,0,1,2.15,24,106.19,106.19,0,0,1-4.76,24.66,131.2,131.2,0,0,1-10.44,23.68,38.58,38.58,0,0,0-4.22,26.2c.74,4,2.08,7.86,3.17,11.78a10.9,10.9,0,0,0,.63,1.39c2.19-2.12,4.27-4,6.17-6,4.31-4.62,6.84-10.31,9.52-15.94a85.39,85.39,0,0,1,29.12-34,55.75,55.75,0,0,1,27.47-10.78c5.1-.56,8.48,2.88,7.31,8.67-.23,1.15-.59,2.28-.88,3.35,32.26-1.06,56.36,11.89,68,42.48C329.81,205.73,319.42,231.07,294.66,251.47ZM51.61,124l-.37.32a6.57,6.57,0,0,0,.21.76c.61,1.4,1.14,2.84,1.85,4.19a73.74,73.74,0,0,0,28.49,29.89c4,2.38,8.42,4.1,12.57,6.27,11.31,5.92,20.16,14.34,25.29,26.16,3.11,7.14,5.68,14.51,8.45,21.79,4,10.45,7.84,21,11.91,31.36,3.59,9.21,7.25,18.41,11.14,27.5,4,9.44,8.28,18.81,12.63,28.12a17.64,17.64,0,0,0,28.36,5.46c5.23-5.08,6.9-11.31,4.75-18.22-1.71-5.49-4-10.79-6.08-16.17-4.32-11.23-8.69-22.46-13-33.7s-8.61-22.33-12.73-33.57c-3.14-8.57-7.34-16.82-8.83-25.93a74.46,74.46,0,0,1-1-12.2,51.22,51.22,0,0,1,1.28-10.44,53.33,53.33,0,0,1,3.14-9.78c1.66-3.82,3.88-7.4,5.71-11.15a98.46,98.46,0,0,0,8-23.89A90.54,90.54,0,0,0,175.27,90a16.62,16.62,0,0,0-.35-2.19,26.92,26.92,0,0,0-1.83,4.48c-3.53,9.3-6.84,18.69-11.48,27.53a43.93,43.93,0,0,1-7.05,10.52,6.18,6.18,0,0,1-8,1.21,21.35,21.35,0,0,1-4-2.84c-4.48-4.12-8.83-8.38-13.32-12.48A32.41,32.41,0,0,0,118,109c-2.85-1-4.59-.56-5.84,2.13a91.84,91.84,0,0,0-4.14,10.9c-1.57,5-2.92,10-5.65,14.47-3.23,5.27-7.82,8.44-14.22,7.7A34.12,34.12,0,0,1,79,141.88c-6.17-2.58-11.49-6.66-16.93-10.48Zm190,108.24c2.24,1.11,4.11,2.18,6.08,3q12.67,5.25,25.41,10.35c2.57,1,5.23,1.93,7.9,0,1.06-.75,2.28-1.25,3.39-1.92,12.7-7.77,21.08-18.83,24.82-33.24a51.37,51.37,0,0,0,.55-23,52,52,0,0,0-6.09-16.29,53.58,53.58,0,0,0-23.22-21.61,51.33,51.33,0,0,0-36.25-3.53,4.77,4.77,0,0,0-3,2.21c-2.05,3.11-4.46,6-6.45,9.12a97.88,97.88,0,0,0-6.44,11.35c-1.92,4.15-1.15,5.66,3,7.62a49,49,0,0,0,5.37,2c4.76,1.62,9.6,3,14.3,4.8,4.36,1.64,8.2,4.18,10.51,8.4,3,5.46,2.12,11-.24,16.38-2.82,6.39-7.39,11.57-12.13,16.59C246.67,227.08,244.23,229.51,241.56,232.25ZM148.81,118.17a2.94,2.94,0,0,0,.37-.29A231.45,231.45,0,0,0,163.5,83.1a2.73,2.73,0,0,0-.19-1.77,53.12,53.12,0,0,0-63.15-30.2A53.49,53.49,0,0,0,79.34,62.4,52.21,52.21,0,0,0,64.85,82.81a50.34,50.34,0,0,0-3.7,16.5,49.71,49.71,0,0,0,1.61,16,5.64,5.64,0,0,0,2.34,3.49c3.38,2.27,6.61,4.76,10,7.06,3.78,2.56,7.56,5.14,12.06,6.37,2.15.59,3.69.28,4.83-1.67a35.39,35.39,0,0,0,2.62-5.86c2.07-5.74,3.71-11.66,6.11-17.26,4.79-11.16,14.21-13.06,24-8.78,6.52,2.85,11.74,7.53,16.83,12.36C144,113.39,146.35,115.78,148.81,118.17Zm87.13,16.55-.35-.32a60.65,60.65,0,0,0-14.54,8.11,74.9,74.9,0,0,0-23.19,27.89,131.59,131.59,0,0,1-6.4,12.31,51.05,51.05,0,0,1-14.37,14.95c-.87.59-1.41,1.16-.92,2.35,1.23,3,2.35,6,3.5,9,3.54,9.24,7.12,18.46,10.58,27.73a2.37,2.37,0,0,0,2.74,1.79A47.53,47.53,0,0,1,214.45,243c5.07,2.36,9.85,5.37,15,7.51a128.3,128.3,0,0,0,16.86,5.64,81.64,81.64,0,0,0,13.78,2.13c4.09.34,8.23.07,12.84.07-.88-.47-1.3-.75-1.76-.93-8.68-3.36-17.46-6.52-26-10.12-5.51-2.32-10.85-5.08-15.28-9.29-3-2.88-3.17-5.66-1.1-8.82a55.45,55.45,0,0,1,5.42-6.47c3.68-4.06,7.53-8,11.14-12.08a25.56,25.56,0,0,0,5.57-9.21c1-3.08.4-4.82-2.48-6.17s-5.85-2.4-8.82-3.48c-4.87-1.78-9.91-3.17-14.63-5.27-4.41-2-7.8-5.25-9-10.23s-.1-9.57,1.95-14.06c3-6.56,7.3-12.3,11.48-18.12C231.62,141,233.76,137.86,235.94,134.72ZM118.51,222c-1.52.58-2.68,1-3.83,1.48-8.49,3.39-17.05,6.62-25.46,10.22-9.81,4.19-19.49,8.68-29.21,13.07-8.07,3.64-12.63,11.78-10.36,20.79A17.57,17.57,0,0,0,72.59,280c7.88-2.81,15.68-5.81,23.5-8.79,10-3.8,19.92-7.66,29.88-11.51,2-.78,4-1.6,6.14-2.45C127.53,245.4,123,233.78,118.51,222Z"/></svg>