<svg id="Layer_2" data-name="Layer 2" xmlns="http://www.w3.org/2000/svg" viewBox="0 0 360 360"><defs><style>.cls-1{fill:#0d0d0d;stroke:#0f0f0f;stroke-miterlimit:10;stroke-width:2px;}</style></defs><path class="cls-1" d="M156.88,224c1.91-7.13,3.49-13,5.05-18.83,2.62-9.85,1-16.74-9.19-22.64-7.37-4.26-12-13.31-18.29-20.81-38.95,4.86-64-7.83-73.84-38.28-9.29-28.74,3-54.65,34.88-72.76-2.08-5.51-4.63-11-6.19-16.74-2.24-8.25,1.42-12.83,9.54-9.24,9.79,4.31,18.75,10.5,28.93,16.38,2.23-3.68,5-9.51,9-14.38,2-2.47,6.17-3.21,9.36-4.73-.21,3.41.37,7.12-.8,10.17-1.69,4.39-4.64,8.29-8.17,14.32,8.88-1.37,15.89-3.46,22.82-3.24,6.64.21,13.21,2.83,19.82,4.39l3.3,5.61L163.66,70.46q5.64,16.32,13.08,37.82c3.11-2.3,5.69-5.24,8.91-6.38,7.56-2.66,16.27-7.61,23-5.83,9.07,2.41,16.52,1.56,25.12-.37,23.43-5.27,48.13,8.45,57.76,31.19,1,2.41.91,6.26,2.61,7.26,18.85,11,17.25,31.66,23.87,48.59,6.51,16.62,5.52,33.53-6,46.79-11.11,12.82-30,19.22-45.3,11.6-11.49-5.71-17-.61-23.51,6.06a81.93,81.93,0,0,0-8.31,10.17c-11.24,16.13-11.18,16.15-29.25,6.93Q193.35,258,181,251.88a14.77,14.77,0,0,0-3.24-.61,58.75,58.75,0,0,1,.8,7.63c-.23,10,1.11,20.36-1.34,29.77-7.12,27.27-42.69,49.34-73.4,47-28.91-2.23-50.6-22.88-54-52-2-17.59,3.11-33.55,15.93-45.51,7.68-7.16,8-13.24,4.2-21.81-3.22-7.17-5.15-14.9-8-22.23-2.8-7.13-1.07-11.23,6.4-14.07,28.9-11,22.49-11.72,34.14,12.54,2.27,4.74,3.79,10,6.8,14.19a18.76,18.76,0,0,0,9.58,6.92c6.28,1.67,13.14,1.12,19.44,2.71C144.11,217.86,149.55,220.94,156.88,224Zm45.47-54.26c11.12,6.63,20.43,14.95,31.19,17.81s16,5,15.86,17.78c-.17,15.35,14.21,27.34,29.63,28.13,15,.78,29.24-10.51,32.33-25.6,3.66-17.88-8.74-33.95-28.18-37.32-3.61-.62-6.8-3.69-10.18-5.63,4-1.56,8-4.47,11.9-4.36,6.05.18,12,2.42,21.6,4.6-4.84-6.61-6.88-12.54-10.41-13.62-9.33-2.84-10.83-9.73-13.23-17.42-6.45-20.67-28.43-33.28-48.79-27.72-9.26,2.53-17.51,7.21-27-.23-2.4-1.89-8.35.7-15.3,1.56,5.39,3.92,8.82,5.46,10.77,8.1s2.48,6.4,3.62,9.67a82.87,82.87,0,0,1-9.34-1.26c-1.6-.39-2.87-2-4.4-2.8-13.13-7-30.14-3.88-39.49,7.34a31.45,31.45,0,0,0,40.13,47.25C196.81,173.89,200.23,171.22,202.35,169.77ZM155.18,304.32c14.2-14,18.2-30.71,11.23-49.1-7.21-19-22-28.67-42.17-30.8-7.7-.82-15.32-2.52-23-3.82,6.56,6.62,14.7,11.25,22.42,16.5,2.35,1.6,3.56,4.88,5.3,7.39-3.08.75-6.7,2.9-9.14,2-7.13-2.71-13.8-6.65-20.74-10.16-2.13,6.54-3.52,13.08-6.44,18.85-1.64,3.24-5.81,5.2-8.84,7.73-.31-3.72-2.09-8.15-.7-11.06,10.73-22.54.69-41.37-9.37-60.28a39.67,39.67,0,0,0,3.52,13.6c7.92,16.46,8.15,29.86-6.94,44.34-14,13.49-14.05,32.79-5,50.23,8.55,16.42,22.76,24.83,41.8,24.47C88.73,317,77,304.62,76.28,284.26c-.13-4,3.16-8.11,4.88-12.17,1.78,3.84,4.69,7.55,5.14,11.54,2,17.33,11.46,27.41,27.54,27.78-3.41-3.8-8-6.87-9.53-11.06a147.19,147.19,0,0,1-7-27.09c-.31-1.81,4-4.41,6.22-6.64,1.25,2.48,3.83,5.12,3.55,7.41-2.13,17.35,10,25.31,22.19,36,.43-14.66,3.37-27.21-6.56-38.08-2.59-2.84-3.16-7.53-4.66-11.37,4.4,1.75,11.17,2.31,12.77,5.48,5.32,10.51,8.78,22,12.49,31.81,9-10.47,8.4-22.73-3.13-37.37-2.11-2.67-2-7.09-2.9-10.7,3.66,1.39,8.34,1.79,10.81,4.33C162.47,268.88,162.27,286,155.18,304.32Zm-.7-223.39c-.36,2.08-.6,3.73-.93,5.36-2.7,13.1-5.56,14.38-16.05,6.28-5.41-4.17-10.08-9.29-13.91-12.87-9.53,1.49-18,4.73-25.74,3.61-15.21-2.19-.2-13-3.78-19C72.77,76.56,63.74,98.09,70.53,120c6.7,21.6,27.53,35,50.83,32.71,7.86-.76,12.82-2.78,15.13-12.35,2.11-8.7,8-17.64,14.72-23.83C165.08,103.71,166.47,98,154.48,80.93Zm24.19,161.35c5.87-2.3,10.2-2.66,12-5,3.45-4.41,5-10.29,8.29-14.84,1.6-2.18,5.47-2.69,8.31-4,.32,2.77,1.6,5.88.77,8.25a78.17,78.17,0,0,1-7,14.09c-4.39,7.29-1.52,10,4.91,10.78l32.8-51.05-11.27-2.94-15.17,10.11V190.07l-10-7.77ZM120.3,52.91,106.49,70.5c16.35-9.54,26.83-2.66,35.15,12.23.05-8.1-3.52-17.12-.58-20.49,3.71-4.26,12.71-3.92,22.86-6.41C146.78,50.7,132,70,120.3,52.91Zm95.91,203.65,3.17,2.36,27.67-31.06-7.62-10.59ZM166.49,231.8l3.41,1.35q8.86-20.55,17.75-41.09l-4.19-2.89c-3.25,2.13-8.62,3.68-9.39,6.49C170.8,207.5,168.9,219.72,166.49,231.8Z"/></svg>